<?xml version="1.0" encoding="UTF-8"?>
<svg id="_レイヤー_2" data-name="レイヤー_2" xmlns="http://www.w3.org/2000/svg" viewBox="0 0 137.46 137.52">
  <defs>
    <style>
      .cls-1 {
        font-family: KozGoPr6N-Regular-83pv-RKSJ-H, 'Kozuka Gothic Pr6N';
      }

      .cls-1, .cls-2 {
        font-size: 10px;
      }

      .cls-2 {
        font-family: Arial-Black, 'Arial Black';
        font-weight: 800;
      }
    </style>
  </defs>
  <g id="_レイヤー_1-2" data-name="レイヤー_1">
    <text class="cls-1" transform="translate(35.3 18.83) rotate(-29.08)"><tspan x="0" y="0">・</tspan></text>
    <text class="cls-1" transform="translate(43.77 14.09) rotate(-19.76)"><tspan x="0" y="0">　</tspan></text>
    <text class="cls-2" transform="translate(52.91 10.64) rotate(-11.45)"><tspan x="0" y="0">V</tspan></text>
    <text class="cls-2" transform="translate(60.4 9.21) rotate(-6.03)"><tspan x="0" y="0">I</tspan></text>
    <text class="cls-2" transform="translate(64.13 8.74) rotate(-.93)"><tspan x="0" y="0">E</tspan></text>
    <text class="cls-2" transform="translate(71.12 8.52) rotate(6.97)"><tspan x="0" y="0">W</tspan></text>
    <text class="cls-2" transform="translate(80.84 9.88) rotate(13.18)"><tspan x="0" y="0"> </tspan></text>
    <text class="cls-2" transform="translate(83.98 10.44) rotate(19.16)"><tspan x="0" y="0">M</tspan></text>
    <text class="cls-2" transform="translate(92.67 13.48) rotate(27.45)"><tspan x="0" y="0">O</tspan></text>
    <text class="cls-2" transform="translate(99.86 17.22) rotate(34.9)"><tspan x="0" y="0">R</tspan></text>
    <text class="cls-2" transform="translate(106.08 21.57) rotate(41.84)"><tspan x="0" y="0">E</tspan></text>
    <text class="cls-1" transform="translate(111.21 26.31) rotate(49.78)"><tspan x="0" y="0">　</tspan></text>
    <text class="cls-1" transform="translate(117.51 33.72) rotate(59.04)"><tspan x="0" y="0">・</tspan></text>
    <text class="cls-1" transform="translate(122.52 42.03) rotate(68.35)"><tspan x="0" y="0">　</tspan></text>
    <text class="cls-2" transform="translate(126.27 51.04) rotate(76.64)"><tspan x="0" y="0">V</tspan></text>
    <text class="cls-2" transform="translate(127.95 58.47) rotate(82.08)"><tspan x="0" y="0">I</tspan></text>
    <text class="cls-2" transform="translate(128.54 62.17) rotate(87.21)"><tspan x="0" y="0">E</tspan></text>
    <text class="cls-2" transform="translate(129 69.18) rotate(95.1)"><tspan x="0" y="0">W</tspan></text>
    <text class="cls-2" transform="translate(127.95 78.95) rotate(101.3)"><tspan x="0" y="0"> </tspan></text>
    <text class="cls-2" transform="translate(127.5 82.06) rotate(107.23)"><tspan x="0" y="0">M</tspan></text>
    <text class="cls-2" transform="translate(124.74 90.88) rotate(115.55)"><tspan x="0" y="0">O</tspan></text>
    <text class="cls-2" transform="translate(121.24 98.2) rotate(123.03)"><tspan x="0" y="0">R</tspan></text>
    <text class="cls-2" transform="translate(117.1 104.54) rotate(129.96)"><tspan x="0" y="0">E</tspan></text>
    <text class="cls-1" transform="translate(112.54 109.83) rotate(137.9)"><tspan x="0" y="0">　</tspan></text>
    <text class="cls-1" transform="translate(105.35 116.36) rotate(147.14)"><tspan x="0" y="0">・</tspan></text>
    <text class="cls-1" transform="translate(97.2 121.64) rotate(156.44)"><tspan x="0" y="0">　</tspan></text>
    <text class="cls-2" transform="translate(88.31 125.69) rotate(164.75)"><tspan x="0" y="0">V</tspan></text>
    <text class="cls-2" transform="translate(80.94 127.62) rotate(170.19)"><tspan x="0" y="0">I</tspan></text>
    <text class="cls-2" transform="translate(77.27 128.33) rotate(175.33)"><tspan x="0" y="0">E</tspan></text>
    <text class="cls-2" transform="translate(70.28 129.01) rotate(-176.78)"><tspan x="0" y="0">W</tspan></text>
    <text class="cls-2" transform="translate(60.49 128.29) rotate(-170.61)"><tspan x="0" y="0"> </tspan></text>
    <text class="cls-2" transform="translate(57.33 127.94) rotate(-164.66)"><tspan x="0" y="0">M</tspan></text>
    <text class="cls-2" transform="translate(48.47 125.49) rotate(-156.37)"><tspan x="0" y="0">O</tspan></text>
    <text class="cls-2" transform="translate(41.03 122.22) rotate(-148.87)"><tspan x="0" y="0">R</tspan></text>
    <text class="cls-2" transform="translate(34.54 118.3) rotate(-141.92)"><tspan x="0" y="0">E</tspan></text>
    <text class="cls-1" transform="translate(29.11 113.91) rotate(-133.98)"><tspan x="0" y="0">　</tspan></text>
    <text class="cls-1" transform="translate(22.35 106.94) rotate(-124.75)"><tspan x="0" y="0">・</tspan></text>
    <text class="cls-1" transform="translate(16.79 98.97) rotate(-115.47)"><tspan x="0" y="0">　</tspan></text>
    <text class="cls-2" transform="translate(12.45 90.22) rotate(-107.17)"><tspan x="0" y="0">V</tspan></text>
    <text class="cls-2" transform="translate(10.28 82.9) rotate(-101.7)"><tspan x="0" y="0">I</tspan></text>
    <text class="cls-2" transform="translate(9.44 79.26) rotate(-96.54)"><tspan x="0" y="0">E</tspan></text>
    <text class="cls-2" transform="translate(8.54 72.3) rotate(-88.64)"><tspan x="0" y="0">W</tspan></text>
    <text class="cls-2" transform="translate(8.94 62.5) rotate(-82.51)"><tspan x="0" y="0"> </tspan></text>
    <text class="cls-2" transform="translate(9.19 59.32) rotate(-76.55)"><tspan x="0" y="0">M</tspan></text>
    <text class="cls-2" transform="translate(11.35 50.38) rotate(-68.26)"><tspan x="0" y="0">O</tspan></text>
    <text class="cls-2" transform="translate(14.36 42.83) rotate(-60.75)"><tspan x="0" y="0">R</tspan></text>
    <text class="cls-2" transform="translate(18.07 36.23) rotate(-53.81)"><tspan x="0" y="0">E</tspan></text>
    <text class="cls-1" transform="translate(22.28 30.65) rotate(-45.85)"><tspan x="0" y="0">　</tspan></text>
  </g>
</svg>